<svg width="34" height="34" viewBox="0 0 34 34" fill="none" xmlns="http://www.w3.org/2000/svg">
<g id="ic:round-plus">
<path id="Vector" d="M21.9188 13.4631L18.3833 16.9986L21.9188 20.5341C22.1064 20.7217 22.2117 20.976 22.2117 21.2412C22.2117 21.5065 22.1064 21.7608 21.9188 21.9483C21.7313 22.1359 21.4769 22.2412 21.2117 22.2412C20.9465 22.2412 20.6921 22.1359 20.5046 21.9483L16.9691 18.4128L13.4335 21.9483C13.246 22.1359 12.9917 22.2412 12.7264 22.2412C12.4612 22.2412 12.2069 22.1359 12.0193 21.9483C11.8318 21.7608 11.7264 21.5065 11.7264 21.2412C11.7264 20.976 11.8318 20.7217 12.0193 20.5341L15.5549 16.9986L12.0193 13.4631C11.8318 13.2755 11.7264 13.0212 11.7264 12.756C11.7264 12.4907 11.8318 12.2364 12.0193 12.0488C12.2069 11.8613 12.4612 11.756 12.7264 11.756C12.9917 11.756 13.246 11.8613 13.4335 12.0488L16.9691 15.5844L20.5046 12.0488C20.6921 11.8613 20.9465 11.756 21.2117 11.756C21.4769 11.756 21.7313 11.8613 21.9188 12.0488C22.1064 12.2364 22.2117 12.4907 22.2117 12.756C22.2117 13.0212 22.1064 13.2755 21.9188 13.4631Z" fill="#999999"/>
</g>
</svg>
