<svg width="40" height="40" viewBox="0 0 40 40" fill="none" xmlns="http://www.w3.org/2000/svg">
<path d="M22.9831 14.4832C22.9831 14.4832 21.2831 12.9832 18.2998 14.0332C15.5498 14.9832 15.6831 18.7499 19.8498 19.7499" stroke="white" stroke-width="2" stroke-miterlimit="10" stroke-linecap="round" stroke-linejoin="round"/>
<path d="M16.4497 24.9493C16.4497 24.9493 18.1497 26.4493 21.133 25.3993C23.8997 24.4327 23.7664 20.666 19.583 19.666" stroke="white" stroke-width="2" stroke-miterlimit="10" stroke-linecap="round" stroke-linejoin="round"/>
<path d="M20.0166 13.6668V11.2168" stroke="white" stroke-width="2" stroke-miterlimit="10" stroke-linecap="round" stroke-linejoin="round"/>
<path d="M20.0166 28.2176V25.7676" stroke="white" stroke-width="2" stroke-miterlimit="10" stroke-linecap="round" stroke-linejoin="round"/>
<path d="M19.7168 35.1006C28.2128 35.1006 35.1002 28.2133 35.1002 19.7173C35.1002 11.2213 28.2128 4.33398 19.7168 4.33398C11.2208 4.33398 4.3335 11.2213 4.3335 19.7173C4.3335 28.2133 11.2208 35.1006 19.7168 35.1006Z" stroke="white" stroke-width="2" stroke-miterlimit="10" stroke-linecap="round" stroke-linejoin="round"/>
</svg>
