<svg width="50" height="50" viewBox="0 0 50 50" fill="none" xmlns="http://www.w3.org/2000/svg">
<path d="M33.0001 38H21.0001C20.4001 38 20.0001 37.6 20.0001 37C20.0001 35.5 19.3001 34.6 18.2001 33.2C17.6001 32.5 16.9001 31.6 16.2001 30.5C14.3001 27.5 12.6001 23.9 12.2001 22.6C11.8001 21.3 12.1001 20.4 12.5001 19.9C12.9001 19.3 13.7001 19 14.6001 19C15.8001 19 17.0001 20 18.1001 21.3V11C18.1001 9.3 19.4001 8 21.1001 8C22.8001 8 24.1001 9.3 24.1001 11V15.2C24.4001 15.1 24.7001 15 25.1001 15C26.2001 15 27.1001 15.6 27.6001 16.4C28.0001 16.1 28.5001 16 29.0001 16C30.4001 16 31.5001 16.9 31.9001 18.2C32.2001 18.1 32.6001 18 33.0001 18C34.7001 18 36.0001 19.3 36.0001 21V24C36.0001 26.6 35.5001 28.7 35.0001 30.7C34.5001 32.7 34.0001 34.6 34.0001 37C34.0001 37.6 33.6001 38 33.0001 38ZM21.9001 36H32.0001C32.1001 33.8 32.6001 32 33.0001 30.2C33.5001 28.2 34.0001 26.3 34.0001 24V21C34.0001 20.4 33.6001 20 33.0001 20C32.4001 20 32.0001 20.4 32.0001 21V22C32.0001 22.6 31.6001 23 31.0001 23C30.4001 23 30.0001 22.6 30.0001 22V19C30.0001 18.4 29.6001 18 29.0001 18C28.4001 18 28.0001 18.4 28.0001 19V21C28.0001 21.6 27.6001 22 27.0001 22C26.4001 22 26.0001 21.6 26.0001 21V18C26.0001 17.4 25.6001 17 25.0001 17C24.4001 17 24.0001 17.4 24.0001 18V20C24.0001 20.6 23.6001 21 23.0001 21C22.4001 21 22.0001 20.6 22.0001 20V11C22.0001 10.4 21.6001 10 21.0001 10C20.4001 10 20.0001 10.4 20.0001 11V26C20.0001 26.6 19.6001 27 19.0001 27C18.4001 27 18.0001 26.6 18.0001 26V25.2C17.1001 22.9 15.2001 21 14.5001 21C14.3001 21 14.1001 21 14.0001 21.1C13.9001 21.2 13.9001 21.5 14.0001 22C14.3001 23.1 15.8001 26.3 17.8001 29.5C18.4001 30.5 19.0001 31.2 19.6001 32C20.7001 33.2 21.7001 34.3 21.9001 36Z" fill="white"/>
</svg>
