<svg width="38" height="36" viewBox="0 0 38 36" fill="none" xmlns="http://www.w3.org/2000/svg">
<g id="eos-icons:ai">
<path id="Vector" d="M33.25 15.4167V12.25H30.0833V9.08333C30.0808 8.24425 29.7464 7.44025 29.1531 6.84693C28.5597 6.25361 27.7557 5.91917 26.9167 5.91667H23.75V2.75H20.5833V5.91667H17.4167V2.75H14.25V5.91667H11.0833C10.2443 5.91917 9.44025 6.25361 8.84693 6.84693C8.25361 7.44025 7.91917 8.24425 7.91667 9.08333V12.25H4.75V15.4167H7.91667V18.5833H4.75V21.75H7.91667V24.9167C7.91917 25.7557 8.25361 26.5597 8.84693 27.1531C9.44025 27.7464 10.2443 28.0808 11.0833 28.0833H14.25V31.25H17.4167V28.0833H20.5833V31.25H23.75V28.0833H26.9167C27.7557 28.0808 28.5597 27.7464 29.1531 27.1531C29.7464 26.5597 30.0808 25.7557 30.0833 24.9167V21.75H33.25V18.5833H30.0833V15.4167H33.25ZM26.9167 24.9167H11.0833V9.08333H26.9167V24.9167Z" fill="white"/>
<path id="Vector_2" d="M17.9884 10.666H15.8588L12.6763 23.3327H14.3024L15.037 20.3639H18.704L19.4197 23.3327H21.1012L17.9884 10.666ZM15.2508 19.0957L16.8626 12.1702H16.9354L18.4919 19.0957H15.2508ZM22.5531 10.666H24.1364V23.3327H22.5531V10.666Z" fill="white"/>
</g>
</svg>
