<svg width="16" height="16" viewBox="0 0 16 16" fill="none" xmlns="http://www.w3.org/2000/svg">
<g id="ep:edit">
<path id="Vector" d="M13 8C13 7.86739 13.0527 7.74021 13.1464 7.64645C13.2402 7.55268 13.3674 7.5 13.5 7.5C13.6326 7.5 13.7598 7.55268 13.8536 7.64645C13.9473 7.74021 14 7.86739 14 8V13.5C14 13.6326 13.9473 13.7598 13.8536 13.8536C13.7598 13.9473 13.6326 14 13.5 14H2.5C2.36739 14 2.24021 13.9473 2.14645 13.8536C2.05268 13.7598 2 13.6326 2 13.5V2.5C2 2.36739 2.05268 2.24021 2.14645 2.14645C2.24021 2.05268 2.36739 2 2.5 2H8C8.13261 2 8.25979 2.05268 8.35355 2.14645C8.44732 2.24021 8.5 2.36739 8.5 2.5C8.5 2.63261 8.44732 2.75979 8.35355 2.85355C8.25979 2.94732 8.13261 3 8 3H3V13H13V8Z" fill="#F1C93B"/>
<path id="Vector_2" d="M7.34298 8.66001L8.16798 8.54201L13.236 3.47501C13.2837 3.42888 13.3218 3.37371 13.348 3.31271C13.3742 3.25171 13.388 3.1861 13.3886 3.11971C13.3892 3.05332 13.3765 2.98748 13.3514 2.92603C13.3263 2.86458 13.2891 2.80875 13.2422 2.76181C13.1952 2.71486 13.1394 2.67774 13.078 2.65259C13.0165 2.62745 12.9507 2.6148 12.8843 2.61538C12.8179 2.61596 12.7523 2.62975 12.6913 2.65596C12.6303 2.68216 12.5751 2.72025 12.529 2.76801L7.45998 7.83501L7.34198 8.66001H7.34298ZM13.943 2.06001C14.0824 2.19931 14.1929 2.36471 14.2684 2.54676C14.3438 2.72881 14.3827 2.92394 14.3827 3.12101C14.3827 3.31807 14.3438 3.5132 14.2684 3.69525C14.1929 3.8773 14.0824 4.04271 13.943 4.18201L8.75798 9.36701C8.68152 9.44375 8.58221 9.49358 8.47498 9.50901L6.82498 9.74501C6.74809 9.75605 6.66968 9.74902 6.59597 9.72448C6.52226 9.69994 6.45528 9.65857 6.40035 9.60364C6.34542 9.54871 6.30405 9.48173 6.27951 9.40802C6.25497 9.33431 6.24794 9.2559 6.25898 9.17901L6.49498 7.52901C6.51014 7.4219 6.55961 7.3226 6.63598 7.24601L11.822 2.06101C12.1033 1.7798 12.4847 1.62183 12.8825 1.62183C13.2802 1.62183 13.6617 1.7798 13.943 2.06101V2.06001Z" fill="#F1C93B"/>
</g>
</svg>
