<svg width="30" height="30" viewBox="0 0 30 30" fill="none" xmlns="http://www.w3.org/2000/svg">
<path id="E" d="M14.4617 0H15.3574C19.0172 0 22.4844 1.51746 25.759 4.55238C28.0609 7.27723 29.3274 9.74369 29.5585 11.9518C29.7319 12.9947 29.8185 13.6571 29.8185 13.939V15.137C29.8185 17.0726 29.1444 19.3136 27.796 21.8599C25.8312 24.9982 23.0334 27.178 19.4025 28.3995C17.5629 28.8599 16.123 29.0901 15.0829 29.0901H14.7362C10.9319 29.0901 7.40203 27.5962 4.1467 24.6082C1.38256 21.6203 0.000488281 18.1484 0.000488281 14.1927V14.0236C0.000488281 13.892 0.0293817 13.7793 0.0871687 13.6853C0.0871687 13.6196 0.0582752 13.5867 0.000488281 13.5867C0.376103 10.7867 1.14178 8.52221 2.29752 6.79333C4.12744 3.88996 6.94937 1.82283 10.7633 0.59195C12.1887 0.197317 13.4215 0 14.4617 0ZM12.4391 9.28798L12.5258 11.9518C12.5258 12.0363 12.4391 12.1256 12.2658 12.2195H10.7633V15.2216H12.2658C12.3524 15.2216 12.4391 15.3108 12.5258 15.4894V22.8887L12.5691 23.4102H15.7041V15.4048C15.7234 15.2827 15.7811 15.2216 15.8774 15.2216H18.4345C18.5501 15.2216 18.6994 14.2773 18.8824 12.3887V12.2195H15.8774C15.7619 12.2195 15.7041 12.1632 15.7041 12.0504V9.97859C15.7041 9.09536 16.2338 8.60677 17.2932 8.51281H19.0557V5.9336C19.0557 5.76447 18.4393 5.6799 17.2065 5.6799H16.7587C14.7265 5.6799 13.4022 6.42219 12.7858 7.90677C12.6703 8.21684 12.5547 8.67724 12.4391 9.28798Z" fill="#3EC71C"/>
</svg>
