<svg width="18" height="16" viewBox="0 0 18 16" fill="none" xmlns="http://www.w3.org/2000/svg">
<g id="Group 1480">
<path id="Path 1852" d="M17.3343 8.14904C17.3445 7.60132 17.285 7.05436 17.1568 6.51904H9.23926V9.47804H13.8859C13.8014 9.99125 13.6054 10.4841 13.3095 10.9282C13.0135 11.3723 12.6234 11.7587 12.1617 12.065L12.1463 12.165L14.6499 14L14.823 14.016C15.6589 13.2441 16.3128 12.3258 16.7445 11.3171C17.1763 10.3084 17.377 9.23043 17.3343 8.14904Z" fill="#4285F4"/>
<path id="Path 1853" d="M9.23906 15.9458C11.3082 15.9951 13.315 15.3011 14.8228 14.0148L12.1615 12.0658C11.3077 12.6108 10.2827 12.8914 9.23906 12.8658C8.15525 12.8467 7.10632 12.5149 6.2443 11.9187C5.38227 11.3225 4.75195 10.4928 4.44468 9.5498L4.34546 9.55781L1.74267 11.4578L1.7085 11.5478C2.37833 12.8507 3.44093 13.9552 4.77351 14.7334C6.10609 15.5117 7.65425 15.932 9.23906 15.9458Z" fill="#34A853"/>
<path id="Path 1854" d="M4.44467 9.549C4.26022 9.04 4.16536 8.5078 4.16355 7.972C4.16679 7.43873 4.25783 6.90888 4.43365 6.4V6.294L1.79889 4.354L1.7129 4.393C1.12088 5.50968 0.813477 6.7329 0.813477 7.972C0.813477 9.21111 1.12088 10.4343 1.7129 11.551L4.44467 9.549Z" fill="#FBBC05"/>
<path id="Path 1855" d="M9.23882 3.08283C9.84159 3.07617 10.4399 3.17761 10.9993 3.38131C11.5587 3.58501 12.0683 3.88697 12.4986 4.26983L14.8787 2.06983C14.1353 1.40481 13.2544 0.879584 12.2865 0.524346C11.3186 0.169108 10.2829 -0.0091427 9.23882 -0.000165297C7.65411 0.0129125 6.10582 0.432461 4.77286 1.21C3.4399 1.98754 2.37668 3.09133 1.70605 4.39383L4.43231 6.39383C4.74393 5.45147 5.37722 4.62313 6.24099 4.02811C7.10476 3.4331 8.15442 3.10212 9.23882 3.08283Z" fill="#EB4335"/>
</g>
</svg>
