<svg width="50" height="50" viewBox="0 0 50 50" fill="none" xmlns="http://www.w3.org/2000/svg">
<path id="Q" d="M23.2046 0H26.7653C30.5762 0 34.9119 1.57997 39.7724 4.73991C43.438 7.60817 46.0944 10.9221 47.7415 14.6816C49.2271 18.2628 49.9699 21.285 49.9699 23.7482V25.8143C49.9699 31.3563 47.7011 36.8498 43.1635 42.2946C37.8993 47.4315 31.7873 50 24.8275 50C16.1399 50 9.04286 45.9407 3.5364 37.8221C1.1788 33.4468 0 29.1444 0 24.9149C0 17.9468 2.85819 11.6675 8.57457 6.07681C13.9034 2.0256 18.7801 0 23.2046 0ZM11.675 21.6578V29.3875C11.675 33.6007 13.0072 36.4123 15.6716 37.8221C16.8666 38.5027 20.7098 38.7538 27.2012 38.5756C32.1748 38.5756 35.033 38.0327 35.7758 36.947C37.4552 35.602 38.2949 33.3738 38.2949 30.2625V20.3209C38.2949 16.3993 36.9142 13.8308 34.153 12.6155L32.3121 12.0078L30.447 11.8619H19.6682C15.825 11.8619 13.2575 13.7417 11.9656 17.5012C11.7719 18.6518 11.675 20.0373 11.675 21.6578ZM20.1042 14.244H30.447C34.1933 14.244 36.0665 16.221 36.0665 20.175V30.7001C35.5659 34.3623 34.0399 36.1935 31.4885 36.1935H27.2012C25.1989 36.1935 23.0835 36.2421 20.8551 36.3393C17.1411 36.3393 14.9692 35.1564 14.3394 32.7905C14.1456 31.4779 14.0487 29.5009 14.0487 26.8595V23.578C14.0487 18.6356 14.4444 16.1643 15.2356 16.1643C16.0269 14.8841 17.6497 14.244 20.1042 14.244ZM30.5923 18.2547C31.0283 19.2432 31.5773 19.7375 32.2394 19.7375C32.9015 19.7375 33.4424 19.2432 33.8623 18.2547C33.6362 17.0556 33.0387 16.456 32.0699 16.456C31.0848 16.7639 30.5923 17.3635 30.5923 18.2547ZM18.1907 25.3768C18.1907 28.5691 20.0154 30.7892 23.6648 32.0369H26.6199C30.1563 30.7568 31.9245 28.4881 31.9245 25.2309V24.9149C31.9245 23.0676 30.9879 21.3418 29.1148 19.7375C27.8391 18.8462 26.515 18.4006 25.1424 18.4006H24.9971C21.9451 18.4006 19.8216 19.9806 18.6267 23.1405C18.4652 23.3512 18.3199 24.0966 18.1907 25.3768ZM24.9971 20.7584H25.1424C27.2739 20.7584 28.703 21.9008 29.4297 24.1857C29.5266 24.3153 29.575 24.6638 29.575 25.2309C29.1067 28.2936 27.6292 29.825 25.1424 29.825C23.1723 29.825 21.7432 28.8365 20.8551 26.8595C20.7259 26.6975 20.621 26.2032 20.5402 25.3768C20.8955 22.2978 22.3811 20.7584 24.9971 20.7584Z" fill="#1A5D1A"/>
</svg>
