<svg width="31" height="30" viewBox="0 0 31 30" fill="none" xmlns="http://www.w3.org/2000/svg">
<path id="Q" d="M14.8237 0H16.9484C19.2225 0 21.8097 0.942801 24.7101 2.8284C26.8974 4.53995 28.4825 6.51742 29.4654 8.7608C30.3519 10.8978 30.7951 12.7012 30.7951 14.171V15.4039C30.7951 18.711 29.4413 21.989 26.7336 25.2381C23.5923 28.3034 19.9452 29.836 15.7921 29.836C10.6081 29.836 6.37311 27.4138 3.0873 22.5692C1.68047 19.9584 0.977051 17.3911 0.977051 14.8673C0.977051 10.7093 2.68259 6.96222 6.09367 3.62616C9.2735 1.20872 12.1835 0 14.8237 0ZM7.94375 12.9236V17.5361C7.94375 20.0502 8.73871 21.7279 10.3286 22.5692C11.0417 22.9753 13.335 23.1252 17.2086 23.0189C20.1764 23.0189 21.882 22.6949 22.3252 22.047C23.3273 21.2445 23.8284 19.9149 23.8284 18.0583V12.1259C23.8284 9.78579 23.0045 8.25314 21.3568 7.5279L20.2583 7.16529L19.1454 7.07826H12.7135C10.4202 7.07826 8.88806 8.19995 8.1172 10.4433C8.00157 11.1299 7.94375 11.9567 7.94375 12.9236ZM12.9737 8.49972H19.1454C21.3809 8.49972 22.4987 9.67943 22.4987 12.0388V18.3194C22.2 20.5047 21.2894 21.5974 19.7669 21.5974H17.2086C16.0138 21.5974 14.7515 21.6264 13.4217 21.6844C11.2055 21.6844 9.90946 20.9785 9.53366 19.5668C9.41803 18.7835 9.36022 17.6038 9.36022 16.0276V14.0695C9.36022 11.1202 9.5963 9.64558 10.0685 9.64558C10.5406 8.88167 11.509 8.49972 12.9737 8.49972ZM19.2321 10.893C19.4923 11.4828 19.8199 11.7778 20.215 11.7778C20.61 11.7778 20.9328 11.4828 21.1834 10.893C21.0485 10.1774 20.6919 9.81964 20.1138 9.81964C19.526 10.0034 19.2321 10.3611 19.2321 10.893ZM11.8318 15.1428C11.8318 17.0478 12.9207 18.3725 15.0984 19.1171H16.8617C18.972 18.3532 20.0271 16.9994 20.0271 15.0558V14.8673C20.0271 13.7649 19.4682 12.7351 18.3504 11.7778C17.5892 11.2459 16.7991 10.98 15.98 10.98H15.8933C14.0721 10.98 12.805 11.9228 12.092 13.8084C11.9956 13.9341 11.9089 14.3789 11.8318 15.1428ZM15.8933 12.387H15.98C17.252 12.387 18.1047 13.0687 18.5383 14.4321C18.5962 14.5095 18.6251 14.7174 18.6251 15.0558C18.3456 16.8834 17.4639 17.7972 15.98 17.7972C14.8045 17.7972 13.9517 17.2073 13.4217 16.0276C13.3446 15.9309 13.282 15.636 13.2338 15.1428C13.4458 13.3056 14.3323 12.387 15.8933 12.387Z" fill="#3EC71C"/>
</svg>
