<svg width="49" height="49" viewBox="0 0 49 49" fill="none" xmlns="http://www.w3.org/2000/svg">
<g id="Group 48096925">
<circle id="Ellipse 1643" cx="24.5" cy="24.5" r="24.5" fill="#1A5D1A"/>
<path id="Vector" d="M18.434 11.0001C18.3914 11.0002 18.3489 11.0047 18.3071 11.0135C18.1405 11.0495 17.9948 11.1511 17.9021 11.2958C17.8094 11.4405 17.7773 11.6166 17.8129 11.7853C17.8485 11.954 17.9488 12.1015 18.0918 12.1953C18.2348 12.2891 18.4087 12.3216 18.5754 12.2856C18.7423 12.2492 18.8882 12.1472 18.9808 12.002C19.0735 11.8568 19.1054 11.6803 19.0696 11.5113C19.0381 11.365 18.9576 11.2342 18.8418 11.141C18.726 11.0478 18.5819 10.998 18.434 11.0001ZM26.2337 11.7804C26.0147 11.7797 25.7998 11.8402 25.6127 11.9553C25.4779 12.0373 25.3603 12.1452 25.2667 12.2731C25.1732 12.4011 25.1054 12.5464 25.0673 12.7008C25.0292 12.8552 25.0216 13.0157 25.0447 13.1731C25.0679 13.3305 25.1215 13.4818 25.2024 13.6182C25.2834 13.7547 25.39 13.8736 25.5164 13.9683C25.6427 14.0631 25.7863 14.1317 25.9388 14.1702C26.0914 14.2088 26.2499 14.2166 26.4054 14.1931C26.5609 14.1696 26.7103 14.1154 26.8451 14.0335C26.9802 13.9517 27.0979 13.8437 27.1917 13.7158C27.2854 13.5879 27.3534 13.4425 27.3915 13.288C27.4297 13.1335 27.4373 12.9729 27.4141 12.8153C27.3908 12.6578 27.3371 12.5065 27.256 12.37C27.15 12.191 27.0003 12.0428 26.8212 11.9395C26.6422 11.8362 26.4398 11.7814 26.2337 11.7804ZM22.5725 14.5154C21.3461 14.524 20.151 14.9082 19.1443 15.6172C18.1376 16.3263 17.3664 17.3271 16.9321 18.4882C16.2996 18.5682 15.6949 18.7992 15.1679 19.1621C14.3064 19.7661 13.7077 20.6828 13.4962 21.7219C13.2847 22.7609 13.4766 23.8425 14.0321 24.7421C13.2666 25.45 12.7734 26.4093 12.6396 27.45C12.5058 28.4908 12.7401 29.5459 13.301 30.4285C13.6341 30.9476 14.0715 31.3898 14.5847 31.7264C15.0979 32.0629 15.6754 32.2863 16.2796 32.3819C16.3013 33.2772 16.5671 34.175 17.1085 34.9676C17.8188 36.0076 18.908 36.7197 20.1367 36.9472C21.3655 37.1747 22.6331 36.8991 23.6612 36.181C23.7434 36.1235 23.8062 36.0513 23.8835 35.9889C25.0762 37.0665 26.8681 37.2439 28.242 36.2825C28.9423 35.7888 29.4413 35.0541 29.646 34.2154C30.7561 34.2649 31.852 33.9477 32.7683 33.3115C33.8629 32.5459 34.6233 31.3823 34.8912 30.0632C35.1591 28.7441 34.9137 27.3712 34.2063 26.2307C34.7783 25.7452 35.1495 25.06 35.2464 24.3107C35.3433 23.5615 35.1588 22.8027 34.7295 22.1845C34.3422 21.6327 33.7817 21.23 33.1393 21.0421C33.2358 19.7964 32.9046 18.5551 32.2016 17.528C31.523 16.5362 30.5393 15.7997 29.4037 15.4333C28.2682 15.0669 27.0448 15.0912 25.9244 15.5025C24.9246 14.8539 23.7612 14.5111 22.5737 14.5154H22.5725ZM15.8023 15.5147C15.6194 15.5169 15.4415 15.5744 15.2911 15.6798C15.0912 15.8198 14.9543 16.0344 14.9107 16.2766C14.8891 16.3964 14.891 16.5195 14.9164 16.6386C14.9418 16.7577 14.9901 16.8706 15.0585 16.9708C15.127 17.0711 15.2143 17.1567 15.3155 17.2227C15.4166 17.2888 15.5296 17.3341 15.6481 17.356C15.8872 17.4001 16.134 17.3463 16.3339 17.2063C16.4331 17.1372 16.5179 17.049 16.5833 16.9467C16.6487 16.8444 16.6936 16.73 16.7152 16.6101C16.7369 16.4902 16.735 16.3672 16.7096 16.248C16.6841 16.1289 16.6357 16.016 16.5671 15.9159C16.4819 15.7906 16.3676 15.6885 16.2342 15.6186C16.1008 15.5486 15.9525 15.5129 15.8023 15.5147ZM35.1282 18.4135C34.9249 18.4163 34.7271 18.4806 34.5603 18.5982C34.3941 18.7144 34.2656 18.8778 34.1911 19.0678C34.1166 19.2579 34.0995 19.466 34.1419 19.6659C34.1843 19.8658 34.2843 20.0485 34.4293 20.1908C34.5743 20.3332 34.7577 20.4288 34.9564 20.4656C35.1551 20.5024 35.3601 20.4787 35.5455 20.3976C35.7308 20.3164 35.8883 20.1814 35.9979 20.0097C36.1075 19.8379 36.1643 19.6371 36.1611 19.4327C36.1579 19.2283 36.0949 19.0294 35.9801 18.8612C35.8851 18.7219 35.7577 18.6083 35.6092 18.5304C35.4606 18.4526 35.2955 18.4116 35.1282 18.4135ZM25.2804 19.6709C25.3565 19.6709 25.4302 19.6771 25.5003 19.6881C25.6988 19.7123 25.887 19.7914 26.044 19.9168C26.2482 20.0807 26.3739 20.2116 26.566 20.3975C26.856 20.6751 27.0663 20.5063 27.2113 20.4219C27.4626 20.2727 27.6571 20.1541 28.4003 20.1675C29.1651 20.181 30.0472 20.4574 30.2297 21.7784C30.4327 23.245 27.8541 27.0245 28.0341 28.7773C28.1622 30.0126 30.2272 29.143 30.4024 30.2695C30.6272 31.7348 27.8215 31.1905 27.1798 30.8725C26.1745 30.3735 25.5643 29.2335 25.8265 28.1082C26.0199 27.2667 27.8807 23.8296 27.9496 23.3012C28.0208 22.7631 27.7357 22.719 27.5581 22.7092C27.3285 22.697 27.1472 22.8083 26.9225 23.152C26.7183 23.4639 24.4067 28.1486 24.2062 28.5314C23.8485 29.2164 23.3966 29.3803 22.9447 29.3558C22.2825 29.3203 21.9804 28.9644 22.0747 28.3186C22.1315 27.9394 23.5972 24.5892 23.6733 24.0669C23.7204 23.7428 23.6576 23.3991 23.341 23.2352C23.0232 23.0701 22.6498 23.3208 22.5387 23.5128C22.384 23.7758 20.3057 29.269 20.0834 29.675C19.7015 30.3796 19.2979 30.6046 18.6914 30.634C17.2583 30.7025 16.1962 29.5087 16.6638 28.0458C16.8728 27.3951 18.254 22.4548 18.9536 21.1974C19.4236 20.3535 20.7274 19.7101 21.6324 20.1064C22.1001 20.3106 22.7501 20.6409 22.9423 20.7265C23.3845 20.9259 23.8594 20.3877 24.0455 20.2226C24.2327 20.0587 24.4104 19.885 24.6375 19.7859C24.8091 19.7125 25.052 19.6697 25.2804 19.6709ZM38.4269 22.1869C38.3891 22.1876 38.3515 22.1921 38.3146 22.2004C38.2419 22.2159 38.173 22.2459 38.1118 22.2884C38.0506 22.331 37.9983 22.3853 37.9578 22.4484C37.9174 22.5115 37.8897 22.582 37.8763 22.6559C37.8628 22.7299 37.864 22.8058 37.8796 22.8792C37.9114 23.0278 38.0001 23.1576 38.1263 23.2401C38.2524 23.3226 38.4057 23.3512 38.5526 23.3196C38.6994 23.2873 38.8275 23.1975 38.909 23.0698C38.9906 22.9422 39.0188 22.787 38.9876 22.6383C38.9598 22.5091 38.8889 22.3935 38.7867 22.3111C38.6846 22.2287 38.5575 22.1844 38.4269 22.1857V22.1869ZM11.2179 23.1777C11.0201 23.1759 10.825 23.2233 10.6497 23.3159C10.4743 23.4085 10.3242 23.5433 10.2126 23.7085C10.0772 23.9079 10.0032 24.1435 10.0001 24.3854C9.99698 24.6273 10.0648 24.8648 10.195 25.0677C10.3252 25.2706 10.5119 25.4298 10.7315 25.5253C10.9512 25.6208 11.1938 25.6482 11.4288 25.604C11.6638 25.5599 11.8806 25.4461 12.0518 25.2773C12.2229 25.1084 12.3408 24.8919 12.3904 24.6552C12.4399 24.4185 12.4191 24.1723 12.3304 23.9476C12.2417 23.7229 12.0892 23.5299 11.8921 23.393C11.6936 23.2548 11.4588 23.1798 11.2179 23.1777ZM36.9479 25.739C36.8964 25.739 36.845 25.7444 36.7945 25.7549C36.6972 25.7762 36.605 25.8167 36.5232 25.8741C36.4414 25.9315 36.3715 26.0047 36.3177 26.0894C36.2638 26.1742 36.227 26.2688 36.2093 26.368C36.1916 26.4671 36.1933 26.5689 36.2145 26.6673C36.2353 26.7661 36.2751 26.8597 36.3317 26.9428C36.3883 27.026 36.4605 27.097 36.5442 27.1519C36.6279 27.2067 36.7215 27.2444 36.8196 27.2626C36.9177 27.2808 37.0184 27.2793 37.1159 27.2581C37.2133 27.2369 37.3057 27.1965 37.3877 27.1392C37.4697 27.0818 37.5397 27.0087 37.5938 26.924C37.6479 26.8393 37.6849 26.7446 37.7029 26.6453C37.7208 26.5461 37.7193 26.4443 37.6983 26.3456C37.6611 26.1727 37.5662 26.0179 37.4296 25.9074C37.2929 25.7969 37.1228 25.7374 36.9479 25.739ZM14.9081 33.1965C14.8707 33.1975 14.8334 33.2024 14.7969 33.2112C14.7249 33.2268 14.6566 33.2567 14.596 33.2991C14.5353 33.3414 14.4835 33.3955 14.4435 33.4581C14.4035 33.5208 14.3761 33.5908 14.3628 33.6641C14.3496 33.7375 14.3507 33.8128 14.3662 33.8857C14.3816 33.9586 14.4112 34.0278 14.453 34.0891C14.4949 34.1505 14.5483 34.203 14.6102 34.2435C14.672 34.2839 14.7412 34.3117 14.8137 34.3251C14.8861 34.3386 14.9605 34.3374 15.0326 34.3218C15.1048 34.3061 15.1732 34.2762 15.2339 34.2336C15.2947 34.1911 15.3465 34.1369 15.3865 34.074C15.4265 34.0112 15.4538 33.941 15.4668 33.8674C15.4799 33.7938 15.4785 33.7184 15.4627 33.6454C15.4355 33.5174 15.3654 33.4028 15.2644 33.321C15.1633 33.2392 15.0375 33.1952 14.9081 33.1965ZM31.4319 35.0924C31.1798 35.0956 30.9344 35.1753 30.7275 35.3211C30.5216 35.4651 30.3626 35.6678 30.2705 35.9033C30.1784 36.1389 30.1574 36.3968 30.2102 36.6445C30.263 36.8921 30.3871 37.1184 30.5669 37.2946C30.7467 37.4708 30.9741 37.5891 31.2203 37.6345C31.4666 37.6798 31.7206 37.6502 31.9502 37.5494C32.1798 37.4487 32.3747 37.2812 32.5103 37.0683C32.6459 36.8553 32.716 36.6064 32.7118 36.3531C32.7076 36.0998 32.6293 35.8535 32.4868 35.6452C32.3692 35.4727 32.2115 35.3321 32.0275 35.2359C31.8435 35.1397 31.639 35.0896 31.4319 35.0924ZM23.7748 37.4188C23.6191 37.4205 23.4676 37.4695 23.3398 37.5594C23.2554 37.6184 23.1834 37.6937 23.1278 37.7809C23.0721 37.8681 23.034 37.9656 23.0156 38.0677C22.9972 38.1698 22.9989 38.2746 23.0205 38.3761C23.0421 38.4775 23.0833 38.5737 23.1416 38.659C23.1999 38.7444 23.2743 38.8174 23.3604 38.8737C23.4466 38.93 23.5428 38.9685 23.6437 38.9872C23.7446 39.0058 23.8481 39.0041 23.9483 38.9822C24.0486 38.9604 24.1436 38.9187 24.2279 38.8596C24.3979 38.7405 24.5143 38.5579 24.5515 38.3519C24.5886 38.146 24.5435 37.9336 24.4261 37.7613C24.3535 37.6543 24.2559 37.5671 24.1421 37.5074C24.0283 37.4477 23.903 37.4172 23.7748 37.4188Z" fill="white"/>
</g>
</svg>
