<svg width="31" height="30" viewBox="0 0 31 30" fill="none" xmlns="http://www.w3.org/2000/svg">
<g id="Group 48096925">
<circle id="Ellipse 1643" cx="15.3836" cy="15.2173" r="14.6197" fill="#3EC71C"/>
<path id="Vector" d="M11.7639 7.16214C11.7385 7.1622 11.7131 7.16489 11.6882 7.17017C11.5888 7.19166 11.5019 7.25225 11.4466 7.33862C11.3913 7.42499 11.3721 7.53007 11.3933 7.63073C11.4146 7.73138 11.4744 7.81938 11.5597 7.87537C11.6451 7.93135 11.7489 7.95073 11.8483 7.92924C11.9479 7.90755 12.035 7.84669 12.0903 7.76005C12.1456 7.67341 12.1646 7.56808 12.1432 7.46723C12.1244 7.37991 12.0764 7.30185 12.0073 7.24625C11.9382 7.19065 11.8522 7.16094 11.7639 7.16214ZM16.4182 7.62781C16.2875 7.62738 16.1593 7.6635 16.0476 7.73218C15.9672 7.78106 15.897 7.8455 15.8412 7.92182C15.7854 7.99815 15.7449 8.08485 15.7222 8.17699C15.6995 8.26913 15.6949 8.3649 15.7087 8.45883C15.7225 8.55277 15.7545 8.64302 15.8028 8.72444C15.8511 8.80587 15.9148 8.87687 15.9902 8.93338C16.0655 8.9899 16.1512 9.03084 16.2422 9.05385C16.3333 9.07686 16.4279 9.08149 16.5207 9.06749C16.6134 9.05349 16.7026 9.02112 16.783 8.97224C16.8636 8.92344 16.9339 8.85903 16.9898 8.7827C17.0458 8.70637 17.0863 8.61962 17.1091 8.52741C17.1319 8.4352 17.1364 8.33935 17.1225 8.24535C17.1087 8.15135 17.0766 8.06104 17.0282 7.97961C16.965 7.87283 16.8756 7.78436 16.7688 7.72274C16.6619 7.66111 16.5412 7.62842 16.4182 7.62781ZM14.2335 9.25981C13.5017 9.26498 12.7885 9.49419 12.1878 9.91731C11.5871 10.3404 11.1269 10.9376 10.8677 11.6304C10.4903 11.6782 10.1295 11.816 9.81499 12.0326C9.30089 12.3931 8.94366 12.9401 8.81745 13.5601C8.69124 14.1801 8.80576 14.8255 9.13722 15.3623C8.68047 15.7847 8.38612 16.3571 8.30628 16.9782C8.22644 17.5992 8.36626 18.2288 8.701 18.7555C8.89977 19.0652 9.16078 19.3291 9.46701 19.53C9.77324 19.7308 10.1178 19.8641 10.4783 19.9211C10.4913 20.4554 10.6499 20.9911 10.973 21.4641C11.3969 22.0847 12.0468 22.5096 12.78 22.6453C13.5132 22.7811 14.2697 22.6166 14.8831 22.1881C14.9322 22.1538 14.9697 22.1107 15.0158 22.0735C15.7275 22.7165 16.7967 22.8224 17.6166 22.2487C18.0345 21.9541 18.3323 21.5157 18.4544 21.0152C19.1168 21.0448 19.7708 20.8555 20.3175 20.4758C20.9707 20.019 21.4244 19.3247 21.5843 18.5375C21.7441 17.7504 21.5977 16.9311 21.1756 16.2506C21.5169 15.9609 21.7384 15.552 21.7962 15.1049C21.8541 14.6578 21.744 14.205 21.4878 13.8361C21.2567 13.5069 20.9222 13.2666 20.5389 13.1544C20.5965 12.4111 20.3989 11.6704 19.9794 11.0575C19.5744 10.4657 18.9874 10.0262 18.3098 9.80753C17.6322 9.58889 16.9022 9.6034 16.2336 9.84882C15.637 9.4618 14.9428 9.25728 14.2342 9.25981H14.2335ZM10.1935 9.85612C10.0844 9.85745 9.97823 9.89177 9.88854 9.95465C9.76921 10.0382 9.68755 10.1663 9.66152 10.3107C9.64863 10.3823 9.64979 10.4557 9.66493 10.5268C9.68006 10.5979 9.70888 10.6652 9.74974 10.725C9.7906 10.7848 9.84269 10.8359 9.90305 10.8754C9.96341 10.9148 10.0308 10.9418 10.1015 10.9548C10.2442 10.9812 10.3915 10.9491 10.5108 10.8655C10.57 10.8243 10.6205 10.7717 10.6596 10.7106C10.6986 10.6496 10.7254 10.5813 10.7383 10.5098C10.7512 10.4382 10.7501 10.3648 10.7349 10.2937C10.7198 10.2226 10.6909 10.1553 10.6499 10.0955C10.5991 10.0208 10.5309 9.95986 10.4513 9.91811C10.3717 9.87636 10.2832 9.85507 10.1935 9.85612ZM21.7257 11.5859C21.6044 11.5876 21.4864 11.626 21.3868 11.6961C21.2876 11.7654 21.211 11.8629 21.1665 11.9763C21.1221 12.0898 21.1119 12.214 21.1372 12.3332C21.1625 12.4525 21.2222 12.5615 21.3087 12.6465C21.3952 12.7314 21.5046 12.7885 21.6232 12.8104C21.7418 12.8324 21.8641 12.8183 21.9747 12.7698C22.0853 12.7214 22.1793 12.6409 22.2447 12.5384C22.3101 12.4359 22.344 12.3161 22.3421 12.1941C22.3402 12.0721 22.3026 11.9534 22.234 11.8531C22.1774 11.7699 22.1014 11.7021 22.0127 11.6557C21.9241 11.6092 21.8255 11.5848 21.7257 11.5859ZM15.8493 12.3362C15.8947 12.3362 15.9387 12.3399 15.9805 12.3465C16.099 12.3609 16.2113 12.4081 16.305 12.4829C16.4269 12.5807 16.5018 12.6588 16.6165 12.7698C16.7895 12.9355 16.915 12.8347 17.0015 12.7844C17.1515 12.6953 17.2676 12.6245 17.711 12.6326C18.1674 12.6406 18.6938 12.8055 18.8027 13.5938C18.9238 14.4689 17.3851 16.7243 17.4925 17.7702C17.569 18.5073 18.8012 17.9884 18.9058 18.6606C19.0399 19.535 17.3656 19.2102 16.9828 19.0204C16.3829 18.7227 16.0188 18.0424 16.1752 17.3709C16.2906 16.8688 17.401 14.8178 17.4421 14.5025C17.4846 14.1814 17.3144 14.1551 17.2085 14.1493C17.0715 14.142 16.9633 14.2084 16.8292 14.4135C16.7073 14.5996 15.328 17.395 15.2083 17.6235C14.9949 18.0322 14.7252 18.13 14.4556 18.1154C14.0604 18.0942 13.8802 17.8818 13.9364 17.4965C13.9703 17.2702 14.8449 15.2711 14.8903 14.9594C14.9185 14.766 14.881 14.5609 14.6921 14.4631C14.5024 14.3646 14.2796 14.5142 14.2133 14.6288C14.121 14.7857 12.8808 18.0636 12.7482 18.3059C12.5203 18.7263 12.2795 18.8606 11.9175 18.8781C11.0624 18.919 10.4286 18.2066 10.7076 17.3337C10.8324 16.9454 11.6565 13.9974 12.074 13.2471C12.3545 12.7435 13.1325 12.3596 13.6725 12.5961C13.9516 12.718 14.3395 12.915 14.4541 12.9661C14.718 13.0851 15.0014 12.7639 15.1124 12.6654C15.2242 12.5676 15.3302 12.464 15.4657 12.4048C15.5681 12.3611 15.713 12.3355 15.8493 12.3362ZM23.6941 13.8376C23.6716 13.838 23.6491 13.8407 23.6271 13.8456C23.5837 13.8549 23.5426 13.8727 23.5061 13.8981C23.4696 13.9235 23.4383 13.956 23.4142 13.9936C23.3901 14.0312 23.3736 14.0733 23.3656 14.1174C23.3575 14.1616 23.3582 14.2068 23.3675 14.2507C23.3865 14.3394 23.4395 14.4168 23.5147 14.466C23.59 14.5153 23.6815 14.5323 23.7691 14.5135C23.8567 14.4942 23.9332 14.4406 23.9818 14.3644C24.0305 14.2882 24.0473 14.1957 24.0287 14.1069C24.0121 14.0298 23.9698 13.9609 23.9088 13.9117C23.8479 13.8625 23.7721 13.8361 23.6941 13.8369V13.8376ZM7.45794 14.4288C7.33994 14.4277 7.22349 14.456 7.11887 14.5113C7.01425 14.5665 6.92467 14.647 6.85804 14.7456C6.77725 14.8645 6.73313 15.0051 6.73126 15.1495C6.7294 15.2938 6.76987 15.4355 6.84756 15.5566C6.92525 15.6777 7.03667 15.7727 7.16773 15.8297C7.29878 15.8866 7.44359 15.903 7.58382 15.8766C7.72405 15.8503 7.85341 15.7824 7.95554 15.6816C8.05767 15.5809 8.12798 15.4517 8.15757 15.3104C8.18717 15.1692 8.17472 15.0223 8.1218 14.8882C8.06888 14.7541 7.97787 14.639 7.86028 14.5573C7.74181 14.4748 7.6017 14.43 7.45794 14.4288ZM22.8116 15.9572C22.7808 15.9572 22.7502 15.9604 22.72 15.9666C22.662 15.9794 22.607 16.0035 22.5581 16.0378C22.5093 16.0721 22.4677 16.1157 22.4355 16.1663C22.4034 16.2169 22.3814 16.2733 22.3708 16.3325C22.3603 16.3917 22.3613 16.4524 22.3739 16.5111C22.3863 16.57 22.4101 16.6259 22.4439 16.6755C22.4776 16.7251 22.5207 16.7675 22.5707 16.8003C22.6206 16.833 22.6765 16.8555 22.735 16.8663C22.7936 16.8772 22.8536 16.8763 22.9118 16.8637C22.97 16.851 23.0251 16.8269 23.074 16.7927C23.1229 16.7585 23.1647 16.7148 23.197 16.6643C23.2293 16.6137 23.2514 16.5572 23.2621 16.498C23.2728 16.4388 23.2719 16.378 23.2594 16.3192C23.2372 16.2159 23.1805 16.1236 23.099 16.0577C23.0174 15.9917 22.916 15.9562 22.8116 15.9572ZM9.65997 20.4072C9.63762 20.4078 9.61539 20.4108 9.59364 20.416C9.55065 20.4253 9.5099 20.4431 9.47372 20.4684C9.43753 20.4937 9.40663 20.526 9.38276 20.5633C9.35889 20.6007 9.34252 20.6425 9.3346 20.6863C9.32668 20.73 9.32736 20.775 9.33659 20.8185C9.34582 20.862 9.36343 20.9033 9.38841 20.9399C9.41339 20.9765 9.44525 21.0078 9.48218 21.032C9.5191 21.0561 9.56037 21.0727 9.60362 21.0807C9.64686 21.0887 9.69125 21.088 9.73424 21.0787C9.77732 21.0693 9.81816 21.0515 9.8544 21.0261C9.89064 21.0007 9.92157 20.9684 9.94543 20.9309C9.96928 20.8934 9.98557 20.8515 9.99338 20.8076C10.0012 20.7637 10.0004 20.7186 9.99092 20.6751C9.97466 20.5987 9.93285 20.5303 9.87255 20.4815C9.81225 20.4327 9.73717 20.4065 9.65997 20.4072ZM19.5201 21.5385C19.3696 21.5405 19.2232 21.588 19.0997 21.675C18.9769 21.761 18.882 21.8819 18.827 22.0225C18.7721 22.163 18.7596 22.3169 18.791 22.4647C18.8225 22.6125 18.8966 22.7475 19.0039 22.8526C19.1112 22.9578 19.2469 23.0284 19.3938 23.0554C19.5407 23.0825 19.6923 23.0649 19.8293 23.0047C19.9663 22.9446 20.0827 22.8446 20.1636 22.7176C20.2445 22.5905 20.2863 22.442 20.2838 22.2908C20.2813 22.1397 20.2346 21.9927 20.1495 21.8684C20.0794 21.7655 19.9852 21.6816 19.8755 21.6242C19.7657 21.5668 19.6436 21.5369 19.5201 21.5385ZM14.9509 22.9267C14.858 22.9278 14.7676 22.957 14.6913 23.0107C14.641 23.0459 14.598 23.0908 14.5648 23.1428C14.5316 23.1949 14.5089 23.253 14.4979 23.314C14.4869 23.3749 14.4879 23.4374 14.5008 23.498C14.5137 23.5585 14.5383 23.6159 14.5731 23.6668C14.6079 23.7178 14.6522 23.7613 14.7036 23.7949C14.755 23.8285 14.8125 23.8515 14.8727 23.8626C14.9329 23.8737 14.9947 23.8727 15.0545 23.8597C15.1143 23.8466 15.171 23.8218 15.2213 23.7865C15.3228 23.7154 15.3922 23.6065 15.4144 23.4836C15.4365 23.3607 15.4096 23.2339 15.3395 23.1311C15.2962 23.0673 15.238 23.0153 15.1701 22.9796C15.1022 22.944 15.0274 22.9258 14.9509 22.9267Z" fill="white"/>
</g>
</svg>
