<svg width="23" height="23" viewBox="0 0 23 23" fill="none" xmlns="http://www.w3.org/2000/svg">
<g id="noto:rocket" clip-path="url(#clip0_992_1522)">
<path id="Vector" d="M0.677246 12.8889L3.61334 9.99597L8.61225 9.11011L8.11811 11.7264L1.36006 13.8035L0.923418 13.6149L0.677246 12.8889Z" fill="#CA2C31"/>
<path id="Vector_2" d="M4.12223 10.7382L0.93457 13.6347L3.27949 14.7775L6.8391 12.9609V12.1038L7.56684 10.1416L4.12223 10.7382ZM11.6655 15.8395L10.1256 16.5079L8.67191 19.5896C8.67191 19.5896 9.95129 22.4232 10.0088 22.4232C10.0663 22.4232 10.794 22.4807 10.794 22.4807L13.3815 19.5878L14.0356 14.6464L11.6655 15.8395Z" fill="#A02422"/>
<path id="Vector_3" d="M10.1524 18.1198C10.1524 18.1198 11.0095 17.9455 11.6204 17.6544C12.2314 17.3633 12.9861 16.9285 12.9861 16.9285L12.7094 19.3417L10.0051 22.4197C10.0051 22.4197 9.89904 22.2885 9.44982 21.311C9.09225 20.5312 8.96826 20.2527 8.96826 20.2527L10.1524 18.1198Z" fill="#CA2C31"/>
<path id="Vector_4" d="M5.67474 14.4937C5.67474 14.4937 4.64333 14.4074 3.5131 15.8359C2.48169 17.1405 1.99833 19.2644 1.81146 19.8106C1.62458 20.3569 1.17716 20.4683 1.3263 20.7181C1.47544 20.9678 2.12052 20.9534 2.91654 20.8546C3.71255 20.7558 4.39536 20.506 4.39536 20.506C4.39536 20.506 4.36122 20.5923 4.24622 20.7791C4.2049 20.8456 4.06115 20.9409 4.07193 21.0397C4.09708 21.2751 6.11318 21.2805 7.72318 19.6238C9.46255 17.8359 8.61802 16.3696 8.61802 16.3696L5.67474 14.4937Z" fill="#F7D74D"/>
<path id="Vector_5" d="M5.98529 15.3254C5.98529 15.3254 4.87303 15.3847 3.95303 16.8133C3.03303 18.2418 2.60537 19.8967 2.69342 20.0081C2.77967 20.1195 4.49389 19.4996 4.90537 19.6236C5.18748 19.7098 5.04193 19.9955 5.1174 20.071C5.18029 20.1339 5.9242 20.2399 7.1281 18.9354C8.33381 17.6308 8.04811 15.798 8.04811 15.798L5.98529 15.3254Z" fill="#FBF0B4"/>
<path id="Vector_6" d="M6.53173 13.376C6.53173 13.376 5.9729 13.8737 5.77345 14.1594C5.574 14.4451 5.574 14.4703 5.58657 14.5565C5.59915 14.6428 5.80579 15.5897 6.6665 16.4199C7.72306 17.4387 8.66642 17.5753 8.80298 17.5753C8.93954 17.5753 9.84696 16.5564 9.84696 16.5564L6.53173 13.376Z" fill="#858585"/>
<path id="Vector_7" d="M9.00244 16.3947C9.00244 16.3947 9.90807 16.9895 11.4264 16.4792C13.5018 15.782 15.0238 14.2223 16.9087 12.2529C18.7271 10.3518 20.2527 7.99255 20.2527 7.99255L19.1835 4.41138L9.00244 16.3947Z" fill="#437687"/>
<path id="Vector_8" d="M12.2168 14.4342L12.4666 13.658L13.0919 13.746C13.0919 13.746 13.568 13.9706 13.9184 14.1341C14.2688 14.2976 14.7198 14.4216 14.7198 14.4216L13.8304 15.1727C13.8304 15.1727 13.3452 14.9894 12.9913 14.8349C12.5923 14.6606 12.2168 14.4342 12.2168 14.4342Z" fill="#3F545F"/>
<path id="Vector_9" d="M15.1515 2.90015C15.1515 2.90015 13.4229 3.9028 10.945 6.24772C8.71149 8.36085 7.05657 10.2727 6.65586 11.8989C6.32164 13.2609 6.49954 14.0875 7.25961 14.9805C8.06282 15.9257 9.00438 16.3947 9.00438 16.3947C9.00438 16.3947 9.71235 16.4055 12.6664 14.1324C16.3518 11.2951 19.3041 6.54421 19.3041 6.54421L15.1515 2.90015Z" fill="#8DAFBF"/>
<path id="Vector_10" d="M18.72 7.51817C18.72 7.51817 17.2161 6.87669 16.1433 5.37989C15.0778 3.89387 15.1622 2.88942 15.1622 2.88942C15.1622 2.88942 16.0535 2.19044 18.057 1.39083C19.4046 0.853561 21.2393 0.578639 21.843 1.02606C22.4468 1.47348 21.4297 3.71778 21.4297 3.71778L19.5771 7.30434L18.72 7.51817Z" fill="#D83F22"/>
<path id="Vector_11" d="M12.2492 14.4468C12.2492 14.4468 10.9501 13.7837 10.1235 12.8404C8.56025 11.0597 8.23682 9.10466 8.23682 9.10466L9.02205 8.18286C9.02205 8.18286 9.21791 10.26 10.8944 12.0551C11.9869 13.2249 13.1279 13.7604 13.1279 13.7604C13.1279 13.7604 12.8997 13.9526 12.6553 14.1395C12.499 14.2599 12.2492 14.4468 12.2492 14.4468Z" fill="#6896A5"/>
<path id="Vector_12" d="M20.2525 7.99239C20.2525 7.99239 21.0323 7.05263 21.7708 4.93411C22.8022 1.98005 21.9038 1.08521 21.9038 1.08521C21.9038 1.08521 21.6001 2.49036 20.5454 4.44356C19.699 6.00864 18.6748 7.49825 18.6748 7.49825C18.6748 7.49825 19.239 7.75161 19.5445 7.83966C19.929 7.95106 20.2525 7.99239 20.2525 7.99239Z" fill="#A02422"/>
<path id="Vector_13" d="M7.15321 12.5171C7.3868 12.7399 7.74079 12.5063 7.97258 11.9601C8.20618 11.4138 8.20259 11.1084 8.0229 10.979C7.80009 10.8173 7.42633 11.1713 7.26282 11.4857C7.08313 11.8343 6.97712 12.3482 7.15321 12.5171ZM15.2643 3.61719C15.2643 3.61719 13.8969 4.60008 12.4378 5.93695C11.0991 7.16422 10.2115 8.12375 10.0893 8.34656C9.95993 8.58555 9.95813 8.92336 10.0588 9.09586C10.1594 9.26836 10.3822 9.3582 10.5852 9.20727C10.7883 9.05453 12.2348 7.45531 13.5411 6.3125C14.736 5.26672 15.6578 4.60367 15.6578 4.60367C15.6578 4.60367 16.0316 3.94242 15.9705 3.79148C15.9094 3.63875 15.2643 3.61719 15.2643 3.61719Z" fill="#B3E1EE"/>
<path id="Vector_14" d="M15.2646 3.61708C15.2646 3.61708 16.2745 2.84263 17.3742 2.29818C18.3966 1.79146 19.4136 1.36919 19.5969 1.73576C19.7712 2.08435 18.632 2.55872 17.6293 3.19841C16.6267 3.8381 15.6618 4.60177 15.6618 4.60177C15.6618 4.60177 15.5144 4.33224 15.4192 4.08247C15.3588 3.93044 15.3072 3.77505 15.2646 3.61708Z" fill="#ED6A65"/>
<path id="Vector_15" d="M16.0982 7.05275C15.0974 6.13096 13.7048 6.37893 13.0184 7.1983C12.314 8.04283 12.3661 9.33299 13.1981 10.1092C13.9545 10.8136 15.3615 10.9735 16.2096 9.98525C16.9643 9.10838 16.9176 7.80565 16.0982 7.05275Z" fill="#E1E1E1"/>
<path id="Vector_16" d="M13.5357 7.52356C12.9409 8.10754 12.9733 9.26473 13.6813 9.79301C14.2994 10.2548 15.1763 10.2314 15.7261 9.66903C16.2759 9.1066 16.2759 8.08418 15.7602 7.5559C15.1673 6.95035 14.2167 6.85512 13.5357 7.52356Z" fill="#3F545F"/>
<path id="Vector_17" d="M8.98461 13.8163C8.98461 13.8163 10.0969 12.6878 10.2191 12.81C10.3413 12.9322 10.3251 13.6168 9.7932 14.3787C9.25953 15.1406 8.08617 16.4972 7.15719 17.4118C6.24078 18.3121 4.94883 19.3417 4.82664 19.3237C4.73141 19.3093 4.34508 19.1171 4.19055 18.9302C4.03961 18.7451 4.49063 17.87 4.67211 17.5807C4.85539 17.2914 8.98461 13.8163 8.98461 13.8163Z" fill="#A02524"/>
<path id="Vector_18" d="M3.81484 18.3011C3.80046 18.5598 4.19577 18.9371 4.19577 18.9371L10.2189 12.8116C10.2189 12.8116 9.93679 12.4936 9.10663 13.0093C8.26929 13.5304 7.53616 14.1557 6.45445 15.2032C4.94687 16.6659 3.82921 18.0423 3.81484 18.3011Z" fill="#CA2C31"/>
<path id="Vector_19" d="M3.42461 6.63939C3.22515 6.83884 3.21617 7.15869 3.43898 7.34197C3.63664 7.50548 3.95828 7.39947 4.07867 7.25212C4.19906 7.10478 4.18468 6.78494 4.02476 6.62681C3.86484 6.46689 3.54679 6.519 3.42461 6.63939Z" fill="white"/>
<path id="Vector_20" opacity="0.5" d="M7.37097 6.40576C7.22003 6.57287 7.26855 6.82084 7.4087 6.91248C7.54886 7.00412 7.75909 6.99514 7.86151 6.86936C7.95315 6.75615 7.96394 6.52975 7.82378 6.38959C7.70159 6.2692 7.468 6.29795 7.37097 6.40576Z" fill="white"/>
<path id="Vector_21" d="M9.9817 2.13647C9.9817 2.13647 10.2009 1.51115 10.3303 1.50397C10.4615 1.49678 10.6501 2.12928 10.6501 2.12928C10.6501 2.12928 11.2988 2.13647 11.3419 2.2317C11.3976 2.35389 10.9269 2.76358 10.9269 2.76358C10.9269 2.76358 11.0796 3.37451 11.0077 3.44819C10.9269 3.52905 10.368 3.2074 10.368 3.2074C10.368 3.2074 9.79302 3.60811 9.66904 3.4985C9.56123 3.40326 9.78584 2.75639 9.78584 2.75639C9.78584 2.75639 9.24677 2.36287 9.27552 2.25326C9.31685 2.09873 9.9817 2.13647 9.9817 2.13647ZM17.4315 17.1296C17.649 17.25 17.9221 17.1817 18.0227 16.9499C18.1144 16.7433 17.9454 16.4971 17.7927 16.4306C17.64 16.3641 17.3722 16.4522 17.2752 16.6265C17.18 16.799 17.3004 17.0577 17.4315 17.1296ZM20.5186 11.8306C20.3946 11.6383 20.1269 11.5755 19.9526 11.73C19.7836 11.8809 19.825 12.1181 19.9202 12.2385C20.0154 12.3589 20.2706 12.4038 20.4251 12.305C20.5797 12.2062 20.594 11.9456 20.5186 11.8306Z" fill="white"/>
</g>
<defs>
<clipPath id="clip0_992_1522">
<rect width="23" height="23" fill="white"/>
</clipPath>
</defs>
</svg>
