<svg width="30" height="24" viewBox="0 0 30 24" fill="none" xmlns="http://www.w3.org/2000/svg">
<g clip-path="url(#clip0_1003_535)">
<path d="M1.5 10.5H3V19.5H1.5C1.30295 19.5002 1.10779 19.4616 0.925699 19.3863C0.743605 19.311 0.578153 19.2005 0.438818 19.0612C0.299484 18.9218 0.189003 18.7564 0.113704 18.5743C0.0384053 18.3922 -0.000233353 18.197 1.06023e-06 18V12C-0.000233353 11.803 0.0384053 11.6078 0.113704 11.4257C0.189003 11.2436 0.299484 11.0782 0.438818 10.9388C0.578153 10.7995 0.743605 10.689 0.925699 10.6137C1.10779 10.5384 1.30295 10.4998 1.5 10.5ZM25.5 8.25V21C25.4992 21.7954 25.1829 22.558 24.6205 23.1205C24.058 23.6829 23.2954 23.9992 22.5 24H7.5C6.70459 23.9992 5.94198 23.6829 5.37954 23.1205C4.8171 22.558 4.50078 21.7954 4.5 21V8.25C4.49984 7.7575 4.59673 7.26979 4.78513 6.81475C4.97353 6.3597 5.24974 5.94624 5.59799 5.59799C5.94625 5.24974 6.35971 4.97352 6.81475 4.78513C7.26979 4.59673 7.7575 4.49984 8.25 4.5H13.5V1.5C13.5 1.10218 13.658 0.720644 13.9393 0.43934C14.2206 0.158035 14.6022 0 15 0C15.3978 0 15.7794 0.158035 16.0607 0.43934C16.342 0.720644 16.5 1.10218 16.5 1.5V4.5H21.75C22.2425 4.49984 22.7302 4.59673 23.1853 4.78513C23.6403 4.97352 24.0538 5.24974 24.402 5.59799C24.7503 5.94624 25.0265 6.3597 25.2149 6.81475C25.4033 7.26979 25.5002 7.7575 25.5 8.25ZM12.375 12C12.375 11.6292 12.265 11.2666 12.059 10.9583C11.853 10.65 11.5601 10.4096 11.2175 10.2677C10.8749 10.1258 10.4979 10.0887 10.1342 10.161C9.77049 10.2334 9.4364 10.412 9.17418 10.6742C8.91195 10.9364 8.73338 11.2705 8.66103 11.6342C8.58868 11.9979 8.62581 12.3749 8.76773 12.7175C8.90964 13.0601 9.14996 13.353 9.45831 13.559C9.76665 13.765 10.1292 13.875 10.5 13.875C10.7462 13.875 10.9901 13.8265 11.2176 13.7323C11.445 13.6381 11.6518 13.5 11.8259 13.3259C12 13.1518 12.1381 12.945 12.2323 12.7176C12.3265 12.4901 12.375 12.2462 12.375 12ZM12 18H9V19.5H12V18ZM16.5 18H13.5V19.5H16.5V18ZM21.375 12C21.375 11.6292 21.265 11.2666 21.059 10.9583C20.853 10.65 20.5601 10.4096 20.2175 10.2677C19.8749 10.1258 19.4979 10.0887 19.1342 10.161C18.7705 10.2334 18.4364 10.412 18.1742 10.6742C17.912 10.9364 17.7334 11.2705 17.661 11.6342C17.5887 11.9979 17.6258 12.3749 17.7677 12.7175C17.9096 13.0601 18.15 13.353 18.4583 13.559C18.7666 13.765 19.1292 13.875 19.5 13.875C19.7462 13.875 19.9901 13.8265 20.2176 13.7323C20.445 13.6381 20.6518 13.5 20.8259 13.3259C21 13.1518 21.1381 12.945 21.2323 12.7176C21.3265 12.4901 21.375 12.2462 21.375 12ZM21 18H18V19.5H21V18ZM30 12V18C30.0002 18.197 29.9616 18.3922 29.8863 18.5743C29.811 18.7564 29.7005 18.9218 29.5612 19.0612C29.4218 19.2005 29.2564 19.311 29.0743 19.3863C28.8922 19.4616 28.697 19.5002 28.5 19.5H27V10.5H28.5C28.697 10.4998 28.8922 10.5384 29.0743 10.6137C29.2564 10.689 29.4218 10.7995 29.5612 10.9388C29.7005 11.0782 29.811 11.2436 29.8863 11.4257C29.9616 11.6078 30.0002 11.803 30 12Z" fill="#1A5D1A"/>
</g>
<defs>
<clipPath id="clip0_1003_535">
<rect width="30" height="24" fill="white"/>
</clipPath>
</defs>
</svg>
