<svg width="49" height="50" viewBox="0 0 49 50" fill="none" xmlns="http://www.w3.org/2000/svg">
<path id="D" d="M23.9458 0H24.9406C30.3724 0 35.6148 2.12283 40.6676 6.3685C46.0363 11.9592 48.7206 17.8253 48.7206 23.9669V26.3491C48.7206 29.9141 47.3785 34.1031 44.6941 38.9159C41.3782 43.7773 36.8622 47.1317 31.1462 48.9791C28.4934 49.6597 26.2828 50 24.5143 50H24.3722C17.7561 50 11.8426 47.3424 6.63188 42.0272C2.21063 36.8417 0 31.17 0 25.0122C0 18.433 2.50275 12.4129 7.50824 6.95187C12.719 2.31729 18.1982 0 23.9458 0ZM25.3906 20.7098V21.9008C25.3906 22.0953 25.288 22.1925 25.0827 22.1925C22.0668 21.7712 19.4772 20.6855 17.3139 18.9353L15.3007 17.0151H15.1349C15.1349 17.1771 14.9454 17.5741 14.5665 18.2061V19.9806C14.6928 20.9853 15.3639 22.1196 16.5797 23.3836V23.5294C15.9165 23.5294 15.2454 23.335 14.5665 22.946V23.0919C14.5665 24.9878 15.7665 26.6164 18.1666 27.9776L17.8824 28.1235H17.1718L16.4376 27.9776V28.2693C17.5429 30.3435 18.9403 31.3807 20.6299 31.3807V31.8182C18.7351 33.0011 16.856 33.5926 14.9928 33.5926H14.1401V33.8843C16.856 35.1645 19.2088 35.8046 21.1983 35.8046C25.3669 35.8046 28.9197 34.0788 31.8567 30.6271C33.9726 27.613 35.0305 24.7529 35.0305 22.0467V21.0258C36.5622 19.5187 37.3359 18.6761 37.3517 18.4978V18.352C36.799 18.6437 36.0253 18.8948 35.0305 19.1055L34.8884 18.7895C35.7885 18.2547 36.4595 17.5174 36.9017 16.5775V16.4317H36.7596C35.3384 17.1285 34.4779 17.4769 34.1779 17.4769H33.7515C32.6936 16.5856 31.7304 16.0914 30.8619 15.9942H29.7013C28.0907 15.9942 26.796 16.9259 25.817 18.7895C25.5327 19.2756 25.3906 19.9157 25.3906 20.7098Z" fill="#1A5D1A"/>
</svg>
