<svg width="30" height="30" viewBox="0 0 30 30" fill="none" xmlns="http://www.w3.org/2000/svg">
<path id="D" d="M15.0761 0H15.6697C18.911 0 22.0392 1.26674 25.0543 3.80021C28.2579 7.13628 29.8597 10.6367 29.8597 14.3016V15.723C29.8597 17.8504 29.0588 20.35 27.457 23.2219C25.4783 26.1228 22.7835 28.1245 19.3727 29.2268C17.7897 29.633 16.4706 29.836 15.4153 29.836H15.3305C11.3825 29.836 7.85386 28.2502 4.74449 25.0785C2.10624 21.9842 0.787109 18.5998 0.787109 14.9253C0.787109 10.9993 2.28055 7.40703 5.26743 4.14833C8.3768 1.38278 11.6463 0 15.0761 0ZM15.9382 12.3579V13.0687C15.9382 13.1847 15.877 13.2427 15.7545 13.2427C13.9548 12.9913 12.4096 12.3434 11.1187 11.2991L9.91735 10.1532H9.81842C9.81842 10.2499 9.70535 10.4868 9.47921 10.864V11.9228C9.55459 12.5223 9.95504 13.1992 10.6806 13.9535V14.0405C10.2848 14.0405 9.88437 13.9244 9.47921 13.6924V13.7794C9.47921 14.9108 10.1953 15.8826 11.6275 16.6948L11.4579 16.7819H11.0339L10.5958 16.6948V16.8689C11.2553 18.1066 12.0892 18.7255 13.0974 18.7255V18.9866C11.9667 19.6925 10.8454 20.0454 9.73361 20.0454H9.22481V20.2195C10.8454 20.9834 12.2494 21.3653 13.4366 21.3653C15.9241 21.3653 18.0441 20.3355 19.7967 18.2758C21.0593 16.4773 21.6906 14.7706 21.6906 13.1557V12.5465C22.6045 11.6472 23.0662 11.1444 23.0756 11.038V10.951C22.7459 11.1251 22.2842 11.2749 21.6906 11.4006L21.6058 11.2121C22.1428 10.893 22.5433 10.453 22.8071 9.89216V9.80513H22.7223C21.8743 10.2209 21.3608 10.4288 21.1817 10.4288H20.9273C20.296 9.897 19.7213 9.60207 19.2031 9.54405H18.5105C17.5494 9.54405 16.7768 10.1001 16.1926 11.2121C16.023 11.5022 15.9382 11.8841 15.9382 12.3579Z" fill="#3EC71C"/>
</svg>
