<svg width="22" height="22" viewBox="0 0 22 22" fill="none" xmlns="http://www.w3.org/2000/svg">
<g id="ep:edit">
<path id="Vector" d="M17.875 11C17.875 10.8177 17.9474 10.6428 18.0764 10.5139C18.2053 10.3849 18.3802 10.3125 18.5625 10.3125C18.7448 10.3125 18.9197 10.3849 19.0486 10.5139C19.1776 10.6428 19.25 10.8177 19.25 11V18.5625C19.25 18.7448 19.1776 18.9197 19.0486 19.0486C18.9197 19.1776 18.7448 19.25 18.5625 19.25H3.4375C3.25516 19.25 3.0803 19.1776 2.95136 19.0486C2.82243 18.9197 2.75 18.7448 2.75 18.5625V3.4375C2.75 3.25516 2.82243 3.0803 2.95136 2.95136C3.0803 2.82243 3.25516 2.75 3.4375 2.75H11C11.1823 2.75 11.3572 2.82243 11.4861 2.95136C11.6151 3.0803 11.6875 3.25516 11.6875 3.4375C11.6875 3.61984 11.6151 3.7947 11.4861 3.92364C11.3572 4.05257 11.1823 4.125 11 4.125H4.125V17.875H17.875V11Z" fill="white"/>
<path id="Vector_2" d="M10.0966 11.9075L11.231 11.7452L18.1995 4.7781C18.2651 4.71468 18.3175 4.63882 18.3535 4.55494C18.3896 4.47107 18.4085 4.38085 18.4093 4.28957C18.4101 4.19828 18.3927 4.10775 18.3582 4.02326C18.3236 3.93877 18.2726 3.86201 18.208 3.79746C18.1434 3.7329 18.0667 3.68186 17.9822 3.64729C17.8977 3.61272 17.8072 3.59532 17.7159 3.59612C17.6246 3.59691 17.5344 3.61588 17.4505 3.65191C17.3666 3.68794 17.2908 3.74031 17.2274 3.80598L10.2575 10.7731L10.0952 11.9075H10.0966ZM19.1716 2.83248C19.3633 3.02402 19.5153 3.25144 19.619 3.50176C19.7228 3.75208 19.7762 4.02039 19.7762 4.29135C19.7762 4.56232 19.7228 4.83062 19.619 5.08094C19.5153 5.33126 19.3633 5.55869 19.1716 5.75023L12.0422 12.8796C11.9371 12.9851 11.8005 13.0536 11.6531 13.0749L9.38435 13.3994C9.27862 13.4145 9.17081 13.4049 9.06946 13.3711C8.96811 13.3374 8.87602 13.2805 8.80049 13.205C8.72495 13.1294 8.66806 13.0373 8.63432 12.936C8.60058 12.8347 8.59092 12.7268 8.6061 12.6211L8.9306 10.3524C8.95144 10.2051 9.01946 10.0685 9.12448 9.96323L16.2552 2.83385C16.642 2.44719 17.1665 2.22998 17.7134 2.22998C18.2603 2.22998 18.7848 2.44719 19.1716 2.83385V2.83248Z" fill="white"/>
</g>
</svg>
