<svg width="17" height="17" viewBox="0 0 17 17" fill="none" xmlns="http://www.w3.org/2000/svg">
<g id="uil:youtube" clip-path="url(#clip0_992_750)">
<path id="Vector" d="M15.7647 6.68126C15.7979 5.72038 15.5878 4.76669 15.1539 3.90874C14.8594 3.55671 14.4508 3.31914 13.9992 3.23743C12.1313 3.06794 10.2557 2.99848 8.38033 3.02933C6.51183 2.99708 4.64294 3.0643 2.7816 3.23072C2.4136 3.29766 2.07304 3.47027 1.80148 3.72749C1.1973 4.28468 1.13017 5.23794 1.06304 6.04351C0.96564 7.49191 0.96564 8.94521 1.06304 10.3936C1.08246 10.847 1.14997 11.2971 1.26443 11.7362C1.34538 12.0753 1.50914 12.389 1.74106 12.6492C2.01447 12.9201 2.36296 13.1025 2.74132 13.1728C4.18861 13.3515 5.6469 13.4255 7.10484 13.3944C9.45442 13.4279 11.5153 13.3944 13.9522 13.2064C14.3399 13.1404 14.6982 12.9577 14.9793 12.6828C15.1673 12.4948 15.3076 12.2646 15.3888 12.0115C15.6289 11.2748 15.7468 10.5038 15.7379 9.72901C15.7647 9.35308 15.7647 7.08404 15.7647 6.68126ZM6.86316 10.1318V5.97638L10.8373 8.06416C9.72295 8.68176 8.25278 9.37993 6.86316 10.1318Z" fill="white"/>
</g>
<defs>
<clipPath id="clip0_992_750">
<rect width="16.1115" height="16.1115" fill="white" transform="translate(0.324707 0.162109)"/>
</clipPath>
</defs>
</svg>
